{"title":"Milfs Like It Big - Big Cock Training Camp - Alyssa Lynn HD 720p","uid":9158665,"size":1112445579,"categoryP":"porn","categoryS":"movie_clips","magnet":"?xt=urn:btih:21463be191a74fb6be1c5f8fe783c659105f6064&amp;dn=Milfs+Like+It+Big+-+Big+Cock+Training+Camp+-+Alyssa+Lynn+HD+720p&amp;tr=udp%3A%2F%2Ftracker.openbittorrent.com%3A80&amp;tr=udp%3A%2F%2Fopen.demonii.com%3A1337&amp;tr=udp%3A%2F%2Ftracker.coppersurfer.tk%3A6969&amp;tr=udp%3A%2F%2Fexodus.desync.com%3A6969","seeders":0,"leechers":2,"uploader":null,"files":1,"time":1383834119,"description":" &lt;a href=&quot;http://bayimg.com/gaCJPaaFb&quot; rel=&quot;nofollow&quot; target=&quot;_NEW&quot;&gt;http://bayimg.com/gaCJPaaFb&lt;/a&gt;\n\n\nMilfs Like It Big - Big Cock Training Camp - Alyssa Lynn HD 720\nSome guys are blessed with fat cocks, but don't have any clue how to actually use them to make the broads cum. Enter thatAlyssa Lynn: this foxy Milf runs a training camp for well-hung dudes who need a hand in the pussy-pounding department. With a little help from Johnny, she's going to show these guys how to take charge and get a wet slice of heaven from horny broads everywhere. Her class watches that slut throat every inch of Johnny's rod, then bend over to get slammed from behind.\n\nFormat : MPEG-4\nFormat profile : Base Media\nCodec ID : isom\nFile size : 1.04 GiB\nDuration : 36mn 7s\nOverall bit rate : 4 106 Kbps\nWriting application : Lavf54.37.100\n\nVideo\nID : 1\nFormat : AVC\nFormat/Info : Advanced Video Codec\nFormat profile : &lt;a class=&quot;__cf_email__&quot; href=&quot;/cdn-cgi/l/email-protection&quot; data-cfemail=&quot;377f5e505f777b041906&quot;&gt;[email&amp;#160;protected]&lt;/a&gt;&lt;script cf-hash='f9e31' type=&quot;text/javascript&quot;&gt;\n/* &lt;![CDATA[ */!function(){try{var t=&quot;currentScript&quot;in document?document.currentScript:function(){for(var t=document.getElementsByTagName(&quot;script&quot;),e=t.length;e--;)if(t[e].getAttribute(&quot;cf-hash&quot;))return t[e]}();if(t&amp;&amp;t.previousSibling){var e,r,n,i,c=t.previousSibling,a=c.getAttribute(&quot;data-cfemail&quot;);if(a){for(e=&quot;&quot;,r=parseInt(a.substr(0,2),16),n=2;a.length-n;n+=2)i=parseInt(a.substr(n,2),16)^r,e+=String.fromCharCode(i);e=document.createTextNode(e),c.parentNode.replaceChild(e,c)}}}catch(u){}}();/* ]]&gt; */&lt;/script&gt;\nFormat settings, CABAC : Yes\nFormat settings, ReFrames : 5 frames\nCodec ID : avc1\nCodec ID/Info : Advanced Video Coding\nDuration : 36mn 7s\nBit rate : 3 800 Kbps\nWidth : 1 280 pixels\nHeight : 720 pixels\nDisplay aspect ratio : 16:9\nFrame rate mode : Constant\nFrame rate : 29.970 fps\nColor space : YUV\nChroma subsampling : 4:2:0\nBit depth : 8 bits\nScan type : Progressive\nBits/(Pixel*Frame) : 0.138\nStream size : 982 MiB (93%)\nWriting library : x264 core 128 r2216 198a7ea\n\n\nAudio\nID : 2\nFormat : AAC\nFormat/Info : Advanced Audio Codec\nFormat profile : LC\nCodec ID : 40\nDuration : 36mn 7s\nDuration_LastFrame : 33ms\nBit rate mode : Constant\nBit rate : 128 Kbps\nChannel(s) : 2 channels\nChannel positions : Front: L R\nSampling rate : 48.0 KHz\nCompression mode : Lossy\nStream size : 33.1 MiB (3%)\nTagged date : UTC 2013-11-02 22:34:22","torrent":{"xt":"urn:btih:21463be191a74fb6be1c5f8fe783c659105f6064","amp;dn":"Milfs+Like+It+Big+-+Big+Cock+Training+Camp+-+Alyssa+Lynn+HD+720p","amp;tr":["udp%3A%2F%2Ftracker.openbittorrent.com%3A80","udp%3A%2F%2Fopen.demonii.com%3A1337","udp%3A%2F%2Ftracker.coppersurfer.tk%3A6969","udp%3A%2F%2Fexodus.desync.com%3A6969"],"infoHash":"21463be191a74fb6be1c5f8fe783c659105f6064","infoHashBuffer":{"type":"Buffer","data":[33,70,59,225,145,167,79,182,190,28,95,143,231,131,198,89,16,95,96,100]},"announce":[],"urlList":[]}}